<?xml version="1.0" encoding="UTF-8" standalone="no"?>
<!-- Created with Inkscape (http://www.inkscape.org/) -->

<svg
   width="302.54764mm"
   height="29.366573mm"
   viewBox="0 0 302.54764 29.366572"
   version="1.1"
   id="svg1"
   inkscape:version="1.4.2 (f4327f4, 2025-05-13)"
   sodipodi:docname="cck-logo.svg"
   xmlns:inkscape="http://www.inkscape.org/namespaces/inkscape"
   xmlns:sodipodi="http://sodipodi.sourceforge.net/DTD/sodipodi-0.dtd"
   xmlns="http://www.w3.org/2000/svg"
   xmlns:svg="http://www.w3.org/2000/svg">
  <sodipodi:namedview
     id="namedview1"
     pagecolor="#ffffff"
     bordercolor="#000000"
     borderopacity="0.25"
     inkscape:showpageshadow="2"
     inkscape:pageopacity="0.0"
     inkscape:pagecheckerboard="0"
     inkscape:deskcolor="#d1d1d1"
     inkscape:document-units="mm"
     inkscape:zoom="0.71179153"
     inkscape:cx="494.52682"
     inkscape:cy="294.32775"
     inkscape:window-width="1920"
     inkscape:window-height="1013"
     inkscape:window-x="2391"
     inkscape:window-y="-9"
     inkscape:window-maximized="1"
     inkscape:current-layer="layer1" />
  <defs
     id="defs1" />
  <g
     inkscape:label="Layer 1"
     inkscape:groupmode="layer"
     id="layer1"
     transform="translate(25.313212,-70.66653)">
    <path
       style="font-size:41.8925px;font-family:Azonix;-inkscape-font-specification:Azonix;text-align:center;text-anchor:middle;fill:#3eb050;stroke-width:1.91782"
       d="M -10.650794,75.903045 H 4.0115813 V 70.666483 H -10.650794 c -8.085253,0 -14.662376,6.577122 -14.662376,14.662375 0,8.085253 6.577123,14.662376 14.662376,14.662376 H 4.0115813 V 94.754671 H -10.650794 c -5.194671,0 -9.425813,-4.231143 -9.425813,-9.425813 0,-5.19467 4.231142,-9.425813 9.425813,-9.425813 z m 30.665322,-5.236562 c -8.085253,0 -14.6623753,6.577122 -14.6623753,14.662375 0,8.085253 6.5771223,14.662376 14.6623753,14.662376 8.085253,0 14.662376,-6.577123 14.662376,-14.662376 0,-8.085253 -6.577123,-14.662375 -14.662376,-14.662375 z m 0,24.088188 c -5.19467,0 -9.425813,-4.231143 -9.425813,-9.425813 0,-5.19467 4.231143,-9.425813 9.425813,-9.425813 5.194671,0 9.425813,4.231143 9.425813,9.425813 0,5.19467 -4.231142,9.425813 -9.425813,9.425813 z M 61.948956,74.688163 52.523143,81.935566 43.09733,74.688163 37.860768,70.666483 V 99.991234 H 43.09733 V 81.307178 l 5.152778,3.937895 4.273035,3.309508 4.273035,-3.309508 5.152778,-3.937895 v 18.684056 h 5.236563 V 70.666483 Z m 23.669232,1.214882 H 100.28056 V 70.666483 H 85.618188 c -8.085253,0 -14.662376,6.577122 -14.662376,14.662375 0,8.085253 6.577123,14.662376 14.662376,14.662376 H 100.28056 V 94.754671 H 85.618188 c -5.194671,0 -9.425813,-4.231143 -9.425813,-9.425813 0,-5.19467 4.231142,-9.425813 9.425813,-9.425813 z M 128.55805,70.666483 V 81.307178 H 109.70642 V 70.666483 h -5.23656 v 29.324751 h 5.23656 V 86.543741 h 18.85163 v 13.447493 h 5.23656 V 70.666483 Z m 17.34345,5.236562 h 21.40707 V 70.666483 H 145.9015 c -4.35682,0 -7.87579,3.560862 -7.87579,7.917682 v 13.489386 c 0,4.35682 3.51897,7.917683 7.87579,7.917683 h 21.40707 V 94.754671 H 145.9015 c -1.46623,0 -2.68112,-1.214882 -2.68112,-2.68112 v -5.52981 h 18.85163 v -5.236563 h -18.85163 v -2.723013 c 0,-1.466237 1.21489,-2.68112 2.68112,-2.68112 z m 49.68447,-1.214882 -9.42581,7.247403 -9.42581,-7.247403 -5.23657,-4.02168 v 29.324751 h 5.23657 V 81.307178 l 5.15277,3.937895 4.27304,3.309508 4.27303,-3.309508 5.15278,-3.937895 v 18.684056 h 5.23657 V 70.666483 Z m 38.75054,-4.02168 h -7.75011 l -8.16904,7.498757 -3.896,3.560863 -4.31493,3.937895 V 70.666483 h -5.23656 v 29.324751 h 5.23656 v -7.247403 l 7.41497,-6.744693 10.13799,13.992096 h 6.45144 L 221.51741,82.438276 Z m 9.42579,29.324751 V 70.666483 h -5.23656 v 29.324751 z m 4.18925,-29.282859 v 5.236563 h 12.02315 v 24.088192 h 5.23656 V 75.944938 h 12.02315 v -5.236563 z"
       id="text1"
       aria-label="ComChemKit" />
  </g>
</svg>
